<svg baseProfile="full" height="420px" version="1.1" width="450px" xmlns="http://www.w3.org/2000/svg" xmlns:ev="http://www.w3.org/2001/xml-events" xmlns:xlink="http://www.w3.org/1999/xlink"><defs><style type="text/css"><![CDATA[
        @import url('https://fonts.googleapis.com/css2?family=Archivo:wght@600;700&family=Inter:wght@400;500;600&family=JetBrains+Mono:wght@400&display=swap');
        .toggle-layer { /* Progressive disclosure layers */ }
    ]]></style><pattern height="3" id="hatch-brick" patternTransform="rotate(45)" patternUnits="userSpaceOnUse" width="3"><line stroke="#555555" stroke-width="0.4" x1="0" x2="0" y1="0" y2="3" /></pattern><pattern height="3" id="hatch-concrete" patternTransform="rotate(45)" patternUnits="userSpaceOnUse" width="3"><line stroke="#555555" stroke-width="0.4" x1="0" x2="0" y1="0" y2="3" /><line stroke="#555555" stroke-width="0.4" x1="0" x2="3" y1="0" y2="0" /></pattern><pattern height="12" id="floor-marble" patternUnits="userSpaceOnUse" width="12"><rect fill="#F5F0EB" height="12" width="12" x="0" y="0" /><line opacity="0.6" stroke="#E8E0D8" stroke-width="0.5" x1="0" x2="12" y1="8" y2="4" /><line opacity="0.4" stroke="#DDD5CC" stroke-width="0.3" x1="2" x2="10" y1="12" y2="0" /></pattern><pattern height="6" id="floor-hardwood" patternUnits="userSpaceOnUse" width="20"><rect fill="#F5E6D3" height="6" width="20" x="0" y="0" /><line stroke="#E8D5BE" stroke-width="0.4" x1="0" x2="20" y1="3" y2="3" /><line stroke="#E0CCAA" stroke-width="0.3" x1="0" x2="20" y1="5.5" y2="5.5" /></pattern><pattern height="10" id="floor-tile" patternUnits="userSpaceOnUse" width="10"><rect fill="#F0F4F8" height="10" width="10" x="0" y="0" /><line stroke="#D0D8E0" stroke-width="0.3" x1="0" x2="10" y1="0" y2="0" /><line stroke="#D0D8E0" stroke-width="0.3" x1="0" x2="0" y1="0" y2="10" /></pattern><pattern height="14" id="floor-terracotta" patternUnits="userSpaceOnUse" width="14"><rect fill="#F5E0CC" height="14" width="14" x="0" y="0" /><rect fill="#EACDB5" height="12" rx="1" width="12" x="1" y="1" /></pattern><pattern height="8" id="floor-concrete" patternUnits="userSpaceOnUse" width="8"><rect fill="#F0F0F0" height="8" width="8" x="0" y="0" /><circle cx="2" cy="3" fill="#E0E0E0" r="0.3" /><circle cx="6" cy="7" fill="#D8D8D8" r="0.2" /></pattern><filter height="115%" id="room-shadow" width="115%" x="-5%" y="-5%"><feGaussianBlur in="SourceAlpha" result="blur" stdDeviation="2" /><feOffset dx="1.5" dy="1.5" in="blur" result="offset" /><feComponentTransfer in="offset" result="shadow"><feFuncA slope="0.15" type="linear" /></feComponentTransfer><feMerge><feMergeNode in="shadow" /><feMergeNode in="SourceGraphic" /></feMerge></filter><pattern height="8" id="garden-hatch" patternUnits="userSpaceOnUse" width="8"><rect fill="#064E3B" height="8" width="8" x="0" y="0" /><line stroke="#C8E0B8" stroke-width="0.3" x1="0" x2="8" y1="0" y2="8" /><line stroke="#C8E0B8" stroke-width="0.3" x1="8" x2="0" y1="0" y2="8" /></pattern><clipPath id="rooms_clip"><rect height="120" width="150" x="80" y="80" /><rect height="120" width="100" x="230" y="80" /><rect height="100" width="120" x="80" y="200" /><rect height="100" width="60" x="200" y="200" /><rect height="100" width="70" x="260" y="200" /></clipPath></defs><rect fill="none" height="220" stroke="#0EA5E9" stroke-dasharray="10,5" stroke-width="2" width="250" x="80" y="80" /><rect fill="none" height="224" stroke="#475569" stroke-width="2.5" width="254" x="78" y="78" /><rect fill="none" height="230" stroke="#475569" stroke-dasharray="2,2" stroke-width="1" width="260" x="75" y="75" /><rect fill="url(#garden-hatch)" height="220" opacity="0.15" width="250" x="80" y="80" /><rect fill="none" height="120.0" stroke="#94A3B8" stroke-dasharray="4,3" stroke-width="1" width="150.0" x="130.0" y="130.0" /><text fill="#94A3B8" font-family="Inter, sans-serif" font-size="6px" font-weight="400" opacity="0.7" x="135.0" y="127.0">5' SETBACK</text><line stroke="#64748B" stroke-width="6" x1="60" x2="350" y1="312" y2="312" /><text fill="#64748B" font-family="Archivo, sans-serif" font-size="8px" font-weight="600" letter-spacing="2px" text-anchor="middle" x="205.0" y="326">ROAD</text><line stroke="#1A1A2E" stroke-width="2" x1="197.0" x2="197.0" y1="300" y2="295" /><line stroke="#1A1A2E" stroke-width="2" x1="213.0" x2="213.0" y1="300" y2="295" /><line stroke="#1A1A2E" stroke-dasharray="3,2" stroke-width="1.5" x1="197.0" x2="213.0" y1="300" y2="300" /><rect fill="white" height="120" opacity="0.03" stroke="#FFFFFF" stroke-opacity="0.12" stroke-width="1" width="150" x="80" y="80" /><rect fill="white" height="120" opacity="0.03" stroke="#FFFFFF" stroke-opacity="0.12" stroke-width="1" width="100" x="230" y="80" /><rect fill="white" height="100" opacity="0.03" stroke="#FFFFFF" stroke-opacity="0.12" stroke-width="1" width="120" x="80" y="200" /><rect fill="white" height="100" opacity="0.03" stroke="#FFFFFF" stroke-opacity="0.12" stroke-width="1" width="60" x="200" y="200" /><rect fill="white" height="100" opacity="0.03" stroke="#FFFFFF" stroke-opacity="0.12" stroke-width="1" width="70" x="260" y="200" /><rect fill="#FFF" height="20" stroke="#64748B" stroke-width="1" width="12" x="234.0" y="106.0" /><circle cx="240.0" cy="116.0" fill="#CBD5E1" r="2" /><g clip-path="url(#rooms_clip)"><rect fill="#94A3B8" height="7.199999999999999" width="16.0" x="205" y="205" /><ellipse cx="213.0" cy="221.8" fill="#E2E8F0" rx="8.0" ry="9.600000000000001" /><rect fill="white" height="15.0" stroke="#94A3B8" stroke-width="1" width="20.0" x="231.0" y="205" /><circle cx="241.0" cy="209" fill="#94A3B8" r="2" /><path d="M 230,80 L 330,80 L 330,100.0 L 250.0,100.0 L 250.0,152.0 L 230,152.0 Z" fill="#E2E8F0" stroke="#94A3B8" stroke-width="1" /><rect fill="#333" height="12" rx="2" width="20" x="280.0" y="84.0" /><circle cx="285.0" cy="90.0" fill="#666" r="3" /><circle cx="295.0" cy="90.0" fill="#666" r="3" /></g><path d="M 80.00,80.00 L 80.00,300.00 L 330.00,300.00 L 330.00,80.00 L 80.00,80.00 Z M 82.50,82.50 L 227.50,82.50 L 227.50,197.50 L 82.50,197.50 L 82.50,82.50 Z M 232.50,82.50 L 327.50,82.50 L 327.50,197.50 L 232.50,197.50 L 232.50,82.50 Z M 82.50,202.50 L 197.50,202.50 L 197.50,297.50 L 82.50,297.50 L 82.50,202.50 Z M 202.50,297.50 L 202.50,202.50 L 257.50,202.50 L 257.50,297.50 L 202.50,297.50 Z M 262.50,297.50 L 262.50,202.50 L 327.50,202.50 L 327.50,297.50 L 262.50,297.50 Z" fill="#1E293B" fill-rule="evenodd" stroke="#0EA5E9" stroke-width="3" /><line stroke="#1D4ED8" stroke-width="2.5" x1="137.5" x2="155.0" y1="80" y2="97.5" /><path d="M 137.5,80 A 17.5,17.5 0 0,0 155.0,97.5" fill="none" stroke="#1D4ED8" stroke-width="2.5" /><text fill="#1D4ED8" font-family="Inter, sans-serif" font-size="7px" font-weight="700" letter-spacing="1px" text-anchor="middle" x="155.0" y="109.5">MAIN</text><line stroke="#0EA5E9" stroke-width="1.5" x1="200" x2="215.0" y1="235.0" y2="250.0" /><path d="M 200,235.0 A 15.0,15.0 0 0,1 215.0,250.0" fill="none" stroke="#0EA5E9" stroke-width="1.5" /><line stroke="#0EA5E9" stroke-width="1.5" x1="260" x2="275.0" y1="235.0" y2="250.0" /><path d="M 260,235.0 A 15.0,15.0 0 0,1 275.0,250.0" fill="none" stroke="#0EA5E9" stroke-width="1.5" /><line stroke="#0EA5E9" stroke-width="1.5" x1="125.0" x2="140.0" y1="200" y2="215.0" /><path d="M 125.0,200 A 15.0,15.0 0 0,0 140.0,215.0" fill="none" stroke="#0EA5E9" stroke-width="1.5" /><line stroke="#0EA5E9" stroke-width="1.5" x1="280.0" x2="295.0" y1="200" y2="215.0" /><path d="M 280.0,200 A 15.0,15.0 0 0,0 295.0,215.0" fill="none" stroke="#0EA5E9" stroke-width="1.5" /><line stroke="#475569" stroke-width="1.5" x1="135.0" x2="175.0" y1="78" y2="78" /><line stroke="#475569" stroke-width="1.5" x1="135.0" x2="175.0" y1="80" y2="80" /><line stroke="#475569" stroke-width="1.5" x1="135.0" x2="175.0" y1="82" y2="82" /><line stroke="#475569" stroke-width="1.5" x1="135.0" x2="135.0" y1="76" y2="84" /><line stroke="#475569" stroke-width="1.5" x1="175.0" x2="175.0" y1="76" y2="84" /><line stroke="#475569" stroke-width="1.5" x1="78" x2="78" y1="120.0" y2="160.0" /><line stroke="#475569" stroke-width="1.5" x1="80" x2="80" y1="120.0" y2="160.0" /><line stroke="#475569" stroke-width="1.5" x1="82" x2="82" y1="120.0" y2="160.0" /><line stroke="#475569" stroke-width="1.5" x1="76" x2="84" y1="120.0" y2="120.0" /><line stroke="#475569" stroke-width="1.5" x1="76" x2="84" y1="160.0" y2="160.0" /><line stroke="#475569" stroke-width="1.5" x1="260.0" x2="300.0" y1="78" y2="78" /><line stroke="#475569" stroke-width="1.5" x1="260.0" x2="300.0" y1="80" y2="80" /><line stroke="#475569" stroke-width="1.5" x1="260.0" x2="300.0" y1="82" y2="82" /><line stroke="#475569" stroke-width="1.5" x1="260.0" x2="260.0" y1="76" y2="84" /><line stroke="#475569" stroke-width="1.5" x1="300.0" x2="300.0" y1="76" y2="84" /><line stroke="#475569" stroke-width="1.5" x1="328" x2="328" y1="120.0" y2="160.0" /><line stroke="#475569" stroke-width="1.5" x1="330" x2="330" y1="120.0" y2="160.0" /><line stroke="#475569" stroke-width="1.5" x1="332" x2="332" y1="120.0" y2="160.0" /><line stroke="#475569" stroke-width="1.5" x1="326" x2="334" y1="120.0" y2="120.0" /><line stroke="#475569" stroke-width="1.5" x1="326" x2="334" y1="160.0" y2="160.0" /><line stroke="#475569" stroke-width="1.5" x1="120.0" x2="160.0" y1="298" y2="298" /><line stroke="#475569" stroke-width="1.5" x1="120.0" x2="160.0" y1="300" y2="300" /><line stroke="#475569" stroke-width="1.5" x1="120.0" x2="160.0" y1="302" y2="302" /><line stroke="#475569" stroke-width="1.5" x1="120.0" x2="120.0" y1="296" y2="304" /><line stroke="#475569" stroke-width="1.5" x1="160.0" x2="160.0" y1="296" y2="304" /><line stroke="#475569" stroke-width="1.5" x1="78" x2="78" y1="230.0" y2="270.0" /><line stroke="#475569" stroke-width="1.5" x1="80" x2="80" y1="230.0" y2="270.0" /><line stroke="#475569" stroke-width="1.5" x1="82" x2="82" y1="230.0" y2="270.0" /><line stroke="#475569" stroke-width="1.5" x1="76" x2="84" y1="230.0" y2="230.0" /><line stroke="#475569" stroke-width="1.5" x1="76" x2="84" y1="270.0" y2="270.0" /><text fill="#E0E0E0" font-family="Inter, sans-serif" font-size="5px" font-weight="700" letter-spacing="-0.2px" text-anchor="middle" x="155.0" y="336.0">LIVING ROOM 1</text><text fill="#E0E0E0" font-family="Inter, sans-serif" font-size="5px" font-weight="700" letter-spacing="-0.2px" text-anchor="middle" x="280.0" y="336.0">KITCHEN 1</text><text fill="#E0E0E0" font-family="Inter, sans-serif" font-size="9.5px" font-weight="700" letter-spacing="-0.2px" text-anchor="middle" x="125.0" y="356.0">BEDROOM 1</text><text fill="#E0E0E0" font-family="Inter, sans-serif" font-size="7.5px" font-weight="700" letter-spacing="-0.2px" text-anchor="middle" x="230.0" y="338.0">BATH 1</text><text fill="#E0E0E0" font-family="Inter, sans-serif" font-size="6px" font-weight="700" letter-spacing="-0.2px" text-anchor="middle" x="295.0" y="374.0">PASSAGE 1</text><line stroke="#FFFFFF" stroke-width="0.75" x1="78" x2="332" y1="345" y2="345" /><line stroke="#FFFFFF" stroke-width="1.5" x1="76" x2="84" y1="349" y2="341" /><line stroke="#FFFFFF" stroke-width="1.5" x1="326" x2="334" y1="349" y2="341" /><text fill="#FFFFFF" font-family="JetBrains Mono, monospace" font-size="10px" text-anchor="middle" x="205.0" y="341">25'-0"</text><line stroke="#FFFFFF" stroke-width="0.75" x1="375" x2="375" y1="78" y2="302" /><line stroke="#FFFFFF" stroke-width="1.5" x1="371" x2="379" y1="84" y2="76" /><line stroke="#FFFFFF" stroke-width="1.5" x1="371" x2="379" y1="304" y2="296" /><text fill="#FFFFFF" font-family="JetBrains Mono, monospace" font-size="10px" text-anchor="middle" transform="rotate(-90, 369, 190.0)" x="369" y="190.0">22'-0"</text><line stroke="#FFFFFF" stroke-width="0.75" x1="78" x2="202" y1="320" y2="320" /><line stroke="#FFFFFF" stroke-width="1.5" x1="76" x2="84" y1="324" y2="316" /><line stroke="#FFFFFF" stroke-width="1.5" x1="196" x2="204" y1="324" y2="316" /><text fill="#FFFFFF" font-family="JetBrains Mono, monospace" font-size="9px" text-anchor="middle" x="140.0" y="316">12'-0"</text><line stroke="#FFFFFF" stroke-width="0.75" x1="198" x2="262" y1="320" y2="320" /><line stroke="#FFFFFF" stroke-width="1.5" x1="196" x2="204" y1="324" y2="316" /><line stroke="#FFFFFF" stroke-width="1.5" x1="256" x2="264" y1="324" y2="316" /><text fill="#FFFFFF" font-family="JetBrains Mono, monospace" font-size="9px" text-anchor="middle" x="230.0" y="316">6'-0"</text><line stroke="#FFFFFF" stroke-width="0.75" x1="258" x2="332" y1="320" y2="320" /><line stroke="#FFFFFF" stroke-width="1.5" x1="256" x2="264" y1="324" y2="316" /><line stroke="#FFFFFF" stroke-width="1.5" x1="326" x2="334" y1="324" y2="316" /><text fill="#FFFFFF" font-family="JetBrains Mono, monospace" font-size="9px" text-anchor="middle" x="295.0" y="316">7'-0"</text><line stroke="#FFFFFF" stroke-width="0.75" x1="350" x2="350" y1="78" y2="202" /><line stroke="#FFFFFF" stroke-width="1.5" x1="346" x2="354" y1="84" y2="76" /><line stroke="#FFFFFF" stroke-width="1.5" x1="346" x2="354" y1="204" y2="196" /><text fill="#FFFFFF" font-family="JetBrains Mono, monospace" font-size="9px" text-anchor="middle" transform="rotate(-90, 344, 140.0)" x="344" y="140.0">12'-0"</text><line stroke="#FFFFFF" stroke-width="0.75" x1="350" x2="350" y1="198" y2="302" /><line stroke="#FFFFFF" stroke-width="1.5" x1="346" x2="354" y1="204" y2="196" /><line stroke="#FFFFFF" stroke-width="1.5" x1="346" x2="354" y1="304" y2="296" /><text fill="#FFFFFF" font-family="JetBrains Mono, monospace" font-size="9px" text-anchor="middle" transform="rotate(-90, 344, 250.0)" x="344" y="250.0">10'-0"</text></svg>